<?xml version="1.0" encoding="utf-8"?>
<svg width="567.82" height="241.507" viewBox="0 0 567.82 241.507" fill="none" xmlns="http://www.w3.org/2000/svg">
  <defs>
    <clipPath id="clip_path_1">
      <rect width="121" height="26" />
    </clipPath>
    <clipPath id="clip_path_2">
      <rect width="124" height="27" />
    </clipPath>
    <clipPath id="clip_path_3">
      <rect width="131" height="28" />
    </clipPath>
    <clipPath id="clip_path_4">
      <rect width="134" height="29" />
    </clipPath>
    <clipPath id="clip_path_5">
      <rect width="127" height="27" />
    </clipPath>
    <clipPath id="clip_path_6">
      <rect width="129" height="29" />
    </clipPath>
    <clipPath id="clip_path_7">
      <rect width="128" height="28" />
    </clipPath>
    <clipPath id="clip_path_8">
      <rect width="132" height="29" />
    </clipPath>
    <clipPath id="clip_path_9">
      <rect width="140" height="30" />
    </clipPath>
    <clipPath id="clip_path_10">
      <rect width="167" height="21" />
    </clipPath>
    <clipPath id="clip_path_11">
      <rect width="135" height="29" />
    </clipPath>
    <clipPath id="clip_path_12">
      <rect width="138" height="31" />
    </clipPath>
  </defs>
  <g>
    <path d="M2.98975 15.08L5.31616 15.08L5.31616 7.33269L7.94409 7.33269L7.94409 5.39348L0.377686 5.39348L0.377686 7.33269L2.98975 7.33269L2.98975 15.08ZM7.61726 15.08L9.98494 15.08L10.5435 12.8583L13.4032 12.8583L13.9617 15.08L16.4056 15.08L13.4032 5.39348L10.6197 5.39348L7.61726 15.08ZM10.9847 11.0619L11.1942 10.2431C11.4386 9.28142 11.6988 8.15153 11.9337 7.13591L11.9845 7.13591C12.2447 8.12614 12.4923 9.28142 12.7525 10.2431L12.962 11.0619L10.9847 11.0619ZM19.7456 9.84001L19.7456 7.24064L20.7866 7.24064C21.8911 7.24064 22.491 7.53898 22.491 8.44987C22.491 9.36076 21.8911 9.84001 20.7866 9.84001L19.7456 9.84001ZM22.6465 15.08L25.2458 15.08L23.0876 11.246C24.0874 10.7763 24.7507 9.86857 24.7507 8.44987C24.7507 6.11076 23.0369 5.39348 20.9675 5.39348L17.4192 5.39348L17.4192 15.08L19.7456 15.08L19.7456 11.6745L20.866 11.6745L22.6465 15.08ZM25.2583 15.08L27.6259 15.08L28.1845 12.8583L31.0442 12.8583L31.6027 15.08L34.0466 15.08L31.0442 5.39348L28.2607 5.39348L25.2583 15.08ZM28.6257 11.0619L28.8352 10.2431C29.0796 9.28142 29.3398 8.15153 29.5747 7.13591L29.6255 7.13591C29.8857 8.12614 30.1333 9.28142 30.3935 10.2431L30.603 11.0619L28.6257 11.0619ZM35.0602 15.08L37.3866 15.08L37.3866 12.5441L38.4403 11.1159L40.7286 15.08L43.2645 15.08L39.7924 9.28142L42.7186 5.39348L40.1701 5.39348L37.4279 9.23063L37.3866 9.23063L37.3866 5.39348L35.0602 5.39348L35.0602 15.08ZM47.2412 15.08L49.5676 15.08L49.5676 11.8681L50.7007 11.8681C52.7541 11.8681 54.522 10.8556 54.522 8.55461C54.522 6.16154 52.7668 5.39348 50.6467 5.39348L47.2412 5.39348L47.2412 15.08ZM49.5676 10.0368L49.5676 7.24064L50.5166 7.24064C51.6369 7.24064 52.259 7.58024 52.259 8.55461C52.259 9.50358 51.7131 10.0368 50.5832 10.0368L49.5676 10.0368ZM58.4986 9.84001L58.4986 7.24064L59.5396 7.24064C60.6441 7.24064 61.244 7.53898 61.244 8.44987C61.244 9.36076 60.6441 9.84001 59.5396 9.84001L58.4986 9.84001ZM61.3995 15.08L63.9989 15.08L61.8406 11.246C62.8404 10.7763 63.5037 9.86857 63.5037 8.44987C63.5037 6.11076 61.7899 5.39348 59.7205 5.39348L56.1722 5.39348L56.1722 15.08L58.4986 15.08L58.4986 11.6745L59.619 11.6745L61.3995 15.08ZM69.3689 15.2609C72.0063 15.2609 73.7995 13.363 73.7995 10.1923C73.7995 7.03435 72.0063 5.22526 69.3689 5.22526C66.7282 5.22526 64.935 7.01848 64.935 10.1923C64.935 13.363 66.7282 15.2609 69.3689 15.2609ZM69.3689 13.2614C68.093 13.2614 67.3154 12.0649 67.3154 10.1923C67.3154 8.31975 68.093 7.21525 69.3689 7.21525C70.6416 7.21525 71.435 8.31975 71.435 10.1923C71.435 12.0649 70.6416 13.2614 69.3689 13.2614ZM79.9487 15.2609C81.3007 15.2609 82.4973 14.7277 83.1733 14.0802L83.1733 9.55437L79.5742 9.55437L79.5742 11.4523L81.1071 11.4523L81.1071 13.0138C80.8977 13.1694 80.5358 13.2614 80.1962 13.2614C78.3903 13.2614 77.5334 12.141 77.5334 10.2177C77.5334 8.33244 78.5585 7.21525 79.9899 7.21525C80.7961 7.21525 81.3007 7.53898 81.7832 7.96745L83.0051 6.48845C82.3418 5.82512 81.3293 5.22526 79.9106 5.22526C77.3239 5.22526 75.153 7.07243 75.153 10.297C75.153 13.5724 77.2731 15.2609 79.9487 15.2609ZM87.4496 9.84001L87.4496 7.24064L88.4906 7.24064C89.5951 7.24064 90.195 7.53898 90.195 8.44987C90.195 9.36076 89.5951 9.84001 88.4906 9.84001L87.4496 9.84001ZM90.3505 15.08L92.9499 15.08L90.7916 11.246C91.7914 10.7763 92.4547 9.86857 92.4547 8.44987C92.4547 6.11076 90.7409 5.39348 88.6715 5.39348L85.1232 5.39348L85.1232 15.08L87.4496 15.08L87.4496 11.6745L88.57 11.6745L90.3505 15.08ZM92.9623 15.08L95.3299 15.08L95.8885 12.8583L98.7482 12.8583L99.3067 15.08L101.751 15.08L98.7482 5.39348L95.9647 5.39348L92.9623 15.08ZM96.3297 11.0619L96.5392 10.2431C96.7836 9.28142 97.0438 8.15153 97.2787 7.13591L97.3295 7.13591C97.5897 8.12614 97.8373 9.28142 98.0975 10.2431L98.307 11.0619L96.3297 11.0619ZM102.764 15.08L104.846 15.08L104.846 11.7665C104.846 10.8017 104.662 9.36076 104.545 8.41179L104.599 8.41179L105.379 10.7255L106.69 14.2612L107.966 14.2612L109.264 10.7255L110.07 8.41179L110.137 8.41179C110.007 9.36076 109.823 10.8017 109.823 11.7665L109.823 15.08L111.943 15.08L111.943 5.39348L109.42 5.39348L107.938 9.57976C107.757 10.1415 107.601 10.7509 107.408 11.3349L107.341 11.3349C107.16 10.7509 107.004 10.1415 106.808 9.57976L105.275 5.39348L102.764 5.39348L102.764 15.08Z" fill="#FFFFFF" clip-path="url(#clip_path_1)" transform="matrix(0.819 -0.574 0.574 0.819 18.084 73.727)" />
    <path d="M2.98975 15.08L5.31616 15.08L5.31616 7.33269L7.94409 7.33269L7.94409 5.39348L0.377686 5.39348L0.377686 7.33269L2.98975 7.33269L2.98975 15.08ZM7.61726 15.08L9.98494 15.08L10.5435 12.8583L13.4032 12.8583L13.9617 15.08L16.4056 15.08L13.4032 5.39348L10.6197 5.39348L7.61726 15.08ZM10.9847 11.0619L11.1942 10.2431C11.4386 9.28142 11.6988 8.15153 11.9337 7.13591L11.9845 7.13591C12.2447 8.12614 12.4923 9.28142 12.7525 10.2431L12.962 11.0619L10.9847 11.0619ZM19.7456 9.84001L19.7456 7.24064L20.7866 7.24064C21.8911 7.24064 22.491 7.53898 22.491 8.44987C22.491 9.36076 21.8911 9.84001 20.7866 9.84001L19.7456 9.84001ZM22.6465 15.08L25.2458 15.08L23.0876 11.246C24.0874 10.7763 24.7507 9.86857 24.7507 8.44987C24.7507 6.11076 23.0369 5.39348 20.9675 5.39348L17.4192 5.39348L17.4192 15.08L19.7456 15.08L19.7456 11.6745L20.866 11.6745L22.6465 15.08ZM25.2583 15.08L27.6259 15.08L28.1845 12.8583L31.0442 12.8583L31.6027 15.08L34.0466 15.08L31.0442 5.39348L28.2607 5.39348L25.2583 15.08ZM28.6257 11.0619L28.8352 10.2431C29.0796 9.28142 29.3398 8.15153 29.5747 7.13591L29.6255 7.13591C29.8857 8.12614 30.1333 9.28142 30.3935 10.2431L30.603 11.0619L28.6257 11.0619ZM35.0602 15.08L37.3866 15.08L37.3866 12.5441L38.4403 11.1159L40.7286 15.08L43.2645 15.08L39.7924 9.28142L42.7186 5.39348L40.1701 5.39348L37.4279 9.23063L37.3866 9.23063L37.3866 5.39348L35.0602 5.39348L35.0602 15.08ZM47.2412 15.08L49.5676 15.08L49.5676 11.8681L50.7007 11.8681C52.7541 11.8681 54.522 10.8556 54.522 8.55461C54.522 6.16154 52.7668 5.39348 50.6467 5.39348L47.2412 5.39348L47.2412 15.08ZM49.5676 10.0368L49.5676 7.24064L50.5166 7.24064C51.6369 7.24064 52.259 7.58024 52.259 8.55461C52.259 9.50358 51.7131 10.0368 50.5832 10.0368L49.5676 10.0368ZM58.4986 9.84001L58.4986 7.24064L59.5396 7.24064C60.6441 7.24064 61.244 7.53898 61.244 8.44987C61.244 9.36076 60.6441 9.84001 59.5396 9.84001L58.4986 9.84001ZM61.3995 15.08L63.9989 15.08L61.8406 11.246C62.8404 10.7763 63.5037 9.86857 63.5037 8.44987C63.5037 6.11076 61.7899 5.39348 59.7205 5.39348L56.1722 5.39348L56.1722 15.08L58.4986 15.08L58.4986 11.6745L59.619 11.6745L61.3995 15.08ZM69.3689 15.2609C72.0063 15.2609 73.7995 13.363 73.7995 10.1923C73.7995 7.03435 72.0063 5.22526 69.3689 5.22526C66.7282 5.22526 64.935 7.01848 64.935 10.1923C64.935 13.363 66.7282 15.2609 69.3689 15.2609ZM69.3689 13.2614C68.093 13.2614 67.3154 12.0649 67.3154 10.1923C67.3154 8.31975 68.093 7.21525 69.3689 7.21525C70.6416 7.21525 71.435 8.31975 71.435 10.1923C71.435 12.0649 70.6416 13.2614 69.3689 13.2614ZM79.9487 15.2609C81.3007 15.2609 82.4973 14.7277 83.1733 14.0802L83.1733 9.55437L79.5742 9.55437L79.5742 11.4523L81.1071 11.4523L81.1071 13.0138C80.8977 13.1694 80.5358 13.2614 80.1962 13.2614C78.3903 13.2614 77.5334 12.141 77.5334 10.2177C77.5334 8.33244 78.5585 7.21525 79.9899 7.21525C80.7961 7.21525 81.3007 7.53898 81.7832 7.96745L83.0051 6.48845C82.3418 5.82512 81.3293 5.22526 79.9106 5.22526C77.3239 5.22526 75.153 7.07243 75.153 10.297C75.153 13.5724 77.2731 15.2609 79.9487 15.2609ZM87.4496 9.84001L87.4496 7.24064L88.4906 7.24064C89.5951 7.24064 90.195 7.53898 90.195 8.44987C90.195 9.36076 89.5951 9.84001 88.4906 9.84001L87.4496 9.84001ZM90.3505 15.08L92.9499 15.08L90.7916 11.246C91.7914 10.7763 92.4547 9.86857 92.4547 8.44987C92.4547 6.11076 90.7409 5.39348 88.6715 5.39348L85.1232 5.39348L85.1232 15.08L87.4496 15.08L87.4496 11.6745L88.57 11.6745L90.3505 15.08ZM92.9623 15.08L95.3299 15.08L95.8885 12.8583L98.7482 12.8583L99.3067 15.08L101.751 15.08L98.7482 5.39348L95.9647 5.39348L92.9623 15.08ZM96.3297 11.0619L96.5392 10.2431C96.7836 9.28142 97.0438 8.15153 97.2787 7.13591L97.3295 7.13591C97.5897 8.12614 97.8373 9.28142 98.0975 10.2431L98.307 11.0619L96.3297 11.0619ZM102.764 15.08L104.846 15.08L104.846 11.7665C104.846 10.8017 104.662 9.36076 104.545 8.41179L104.599 8.41179L105.379 10.7255L106.69 14.2612L107.966 14.2612L109.264 10.7255L110.07 8.41179L110.137 8.41179C110.007 9.36076 109.823 10.8017 109.823 11.7665L109.823 15.08L111.943 15.08L111.943 5.39348L109.42 5.39348L107.938 9.57976C107.757 10.1415 107.601 10.7509 107.408 11.3349L107.341 11.3349C107.16 10.7509 107.004 10.1415 106.808 9.57976L105.275 5.39348L102.764 5.39348L102.764 15.08Z" fill="#FFFFFF" clip-path="url(#clip_path_2)" transform="matrix(0.819 -0.574 0.574 0.819 82.729 83.005)" />
    <path d="M2.98975 15.08L5.31616 15.08L5.31616 7.33269L7.94409 7.33269L7.94409 5.39348L0.377686 5.39348L0.377686 7.33269L2.98975 7.33269L2.98975 15.08ZM7.61726 15.08L9.98494 15.08L10.5435 12.8583L13.4032 12.8583L13.9617 15.08L16.4056 15.08L13.4032 5.39348L10.6197 5.39348L7.61726 15.08ZM10.9847 11.0619L11.1942 10.2431C11.4386 9.28142 11.6988 8.15153 11.9337 7.13591L11.9845 7.13591C12.2447 8.12614 12.4923 9.28142 12.7525 10.2431L12.962 11.0619L10.9847 11.0619ZM19.7456 9.84001L19.7456 7.24064L20.7866 7.24064C21.8911 7.24064 22.491 7.53898 22.491 8.44987C22.491 9.36076 21.8911 9.84001 20.7866 9.84001L19.7456 9.84001ZM22.6465 15.08L25.2458 15.08L23.0876 11.246C24.0874 10.7763 24.7507 9.86857 24.7507 8.44987C24.7507 6.11076 23.0369 5.39348 20.9675 5.39348L17.4192 5.39348L17.4192 15.08L19.7456 15.08L19.7456 11.6745L20.866 11.6745L22.6465 15.08ZM25.2583 15.08L27.6259 15.08L28.1845 12.8583L31.0442 12.8583L31.6027 15.08L34.0466 15.08L31.0442 5.39348L28.2607 5.39348L25.2583 15.08ZM28.6257 11.0619L28.8352 10.2431C29.0796 9.28142 29.3398 8.15153 29.5747 7.13591L29.6255 7.13591C29.8857 8.12614 30.1333 9.28142 30.3935 10.2431L30.603 11.0619L28.6257 11.0619ZM35.0602 15.08L37.3866 15.08L37.3866 12.5441L38.4403 11.1159L40.7286 15.08L43.2645 15.08L39.7924 9.28142L42.7186 5.39348L40.1701 5.39348L37.4279 9.23063L37.3866 9.23063L37.3866 5.39348L35.0602 5.39348L35.0602 15.08ZM47.2412 15.08L49.5676 15.08L49.5676 11.8681L50.7007 11.8681C52.7541 11.8681 54.522 10.8556 54.522 8.55461C54.522 6.16154 52.7668 5.39348 50.6467 5.39348L47.2412 5.39348L47.2412 15.08ZM49.5676 10.0368L49.5676 7.24064L50.5166 7.24064C51.6369 7.24064 52.259 7.58024 52.259 8.55461C52.259 9.50358 51.7131 10.0368 50.5832 10.0368L49.5676 10.0368ZM58.4986 9.84001L58.4986 7.24064L59.5396 7.24064C60.6441 7.24064 61.244 7.53898 61.244 8.44987C61.244 9.36076 60.6441 9.84001 59.5396 9.84001L58.4986 9.84001ZM61.3995 15.08L63.9989 15.08L61.8406 11.246C62.8404 10.7763 63.5037 9.86857 63.5037 8.44987C63.5037 6.11076 61.7899 5.39348 59.7205 5.39348L56.1722 5.39348L56.1722 15.08L58.4986 15.08L58.4986 11.6745L59.619 11.6745L61.3995 15.08ZM69.3689 15.2609C72.0063 15.2609 73.7995 13.363 73.7995 10.1923C73.7995 7.03435 72.0063 5.22526 69.3689 5.22526C66.7282 5.22526 64.935 7.01848 64.935 10.1923C64.935 13.363 66.7282 15.2609 69.3689 15.2609ZM69.3689 13.2614C68.093 13.2614 67.3154 12.0649 67.3154 10.1923C67.3154 8.31975 68.093 7.21525 69.3689 7.21525C70.6416 7.21525 71.435 8.31975 71.435 10.1923C71.435 12.0649 70.6416 13.2614 69.3689 13.2614ZM79.9487 15.2609C81.3007 15.2609 82.4973 14.7277 83.1733 14.0802L83.1733 9.55437L79.5742 9.55437L79.5742 11.4523L81.1071 11.4523L81.1071 13.0138C80.8977 13.1694 80.5358 13.2614 80.1962 13.2614C78.3903 13.2614 77.5334 12.141 77.5334 10.2177C77.5334 8.33244 78.5585 7.21525 79.9899 7.21525C80.7961 7.21525 81.3007 7.53898 81.7832 7.96745L83.0051 6.48845C82.3418 5.82512 81.3293 5.22526 79.9106 5.22526C77.3239 5.22526 75.153 7.07243 75.153 10.297C75.153 13.5724 77.2731 15.2609 79.9487 15.2609ZM87.4496 9.84001L87.4496 7.24064L88.4906 7.24064C89.5951 7.24064 90.195 7.53898 90.195 8.44987C90.195 9.36076 89.5951 9.84001 88.4906 9.84001L87.4496 9.84001ZM90.3505 15.08L92.9499 15.08L90.7916 11.246C91.7914 10.7763 92.4547 9.86857 92.4547 8.44987C92.4547 6.11076 90.7409 5.39348 88.6715 5.39348L85.1232 5.39348L85.1232 15.08L87.4496 15.08L87.4496 11.6745L88.57 11.6745L90.3505 15.08ZM92.9623 15.08L95.3299 15.08L95.8885 12.8583L98.7482 12.8583L99.3067 15.08L101.751 15.08L98.7482 5.39348L95.9647 5.39348L92.9623 15.08ZM96.3297 11.0619L96.5392 10.2431C96.7836 9.28142 97.0438 8.15153 97.2787 7.13591L97.3295 7.13591C97.5897 8.12614 97.8373 9.28142 98.0975 10.2431L98.307 11.0619L96.3297 11.0619ZM102.764 15.08L104.846 15.08L104.846 11.7665C104.846 10.8017 104.662 9.36076 104.545 8.41179L104.599 8.41179L105.379 10.7255L106.69 14.2612L107.966 14.2612L109.264 10.7255L110.07 8.41179L110.137 8.41179C110.007 9.36076 109.823 10.8017 109.823 11.7665L109.823 15.08L111.943 15.08L111.943 5.39348L109.42 5.39348L107.938 9.57976C107.757 10.1415 107.601 10.7509 107.408 11.3349L107.341 11.3349C107.16 10.7509 107.004 10.1415 106.808 9.57976L105.275 5.39348L102.764 5.39348L102.764 15.08Z" fill="#FFFFFF" clip-path="url(#clip_path_3)" transform="matrix(0.819 -0.574 0.574 0.819 180.599 75.139)" />
    <path d="M2.98975 15.08L5.31616 15.08L5.31616 7.33269L7.94409 7.33269L7.94409 5.39348L0.377686 5.39348L0.377686 7.33269L2.98975 7.33269L2.98975 15.08ZM7.61726 15.08L9.98494 15.08L10.5435 12.8583L13.4032 12.8583L13.9617 15.08L16.4056 15.08L13.4032 5.39348L10.6197 5.39348L7.61726 15.08ZM10.9847 11.0619L11.1942 10.2431C11.4386 9.28142 11.6988 8.15153 11.9337 7.13591L11.9845 7.13591C12.2447 8.12614 12.4923 9.28142 12.7525 10.2431L12.962 11.0619L10.9847 11.0619ZM19.7456 9.84001L19.7456 7.24064L20.7866 7.24064C21.8911 7.24064 22.491 7.53898 22.491 8.44987C22.491 9.36076 21.8911 9.84001 20.7866 9.84001L19.7456 9.84001ZM22.6465 15.08L25.2458 15.08L23.0876 11.246C24.0874 10.7763 24.7507 9.86857 24.7507 8.44987C24.7507 6.11076 23.0369 5.39348 20.9675 5.39348L17.4192 5.39348L17.4192 15.08L19.7456 15.08L19.7456 11.6745L20.866 11.6745L22.6465 15.08ZM25.2583 15.08L27.6259 15.08L28.1845 12.8583L31.0442 12.8583L31.6027 15.08L34.0466 15.08L31.0442 5.39348L28.2607 5.39348L25.2583 15.08ZM28.6257 11.0619L28.8352 10.2431C29.0796 9.28142 29.3398 8.15153 29.5747 7.13591L29.6255 7.13591C29.8857 8.12614 30.1333 9.28142 30.3935 10.2431L30.603 11.0619L28.6257 11.0619ZM35.0602 15.08L37.3866 15.08L37.3866 12.5441L38.4403 11.1159L40.7286 15.08L43.2645 15.08L39.7924 9.28142L42.7186 5.39348L40.1701 5.39348L37.4279 9.23063L37.3866 9.23063L37.3866 5.39348L35.0602 5.39348L35.0602 15.08ZM47.2412 15.08L49.5676 15.08L49.5676 11.8681L50.7007 11.8681C52.7541 11.8681 54.522 10.8556 54.522 8.55461C54.522 6.16154 52.7668 5.39348 50.6467 5.39348L47.2412 5.39348L47.2412 15.08ZM49.5676 10.0368L49.5676 7.24064L50.5166 7.24064C51.6369 7.24064 52.259 7.58024 52.259 8.55461C52.259 9.50358 51.7131 10.0368 50.5832 10.0368L49.5676 10.0368ZM58.4986 9.84001L58.4986 7.24064L59.5396 7.24064C60.6441 7.24064 61.244 7.53898 61.244 8.44987C61.244 9.36076 60.6441 9.84001 59.5396 9.84001L58.4986 9.84001ZM61.3995 15.08L63.9989 15.08L61.8406 11.246C62.8404 10.7763 63.5037 9.86857 63.5037 8.44987C63.5037 6.11076 61.7899 5.39348 59.7205 5.39348L56.1722 5.39348L56.1722 15.08L58.4986 15.08L58.4986 11.6745L59.619 11.6745L61.3995 15.08ZM69.3689 15.2609C72.0063 15.2609 73.7995 13.363 73.7995 10.1923C73.7995 7.03435 72.0063 5.22526 69.3689 5.22526C66.7282 5.22526 64.935 7.01848 64.935 10.1923C64.935 13.363 66.7282 15.2609 69.3689 15.2609ZM69.3689 13.2614C68.093 13.2614 67.3154 12.0649 67.3154 10.1923C67.3154 8.31975 68.093 7.21525 69.3689 7.21525C70.6416 7.21525 71.435 8.31975 71.435 10.1923C71.435 12.0649 70.6416 13.2614 69.3689 13.2614ZM79.9487 15.2609C81.3007 15.2609 82.4973 14.7277 83.1733 14.0802L83.1733 9.55437L79.5742 9.55437L79.5742 11.4523L81.1071 11.4523L81.1071 13.0138C80.8977 13.1694 80.5358 13.2614 80.1962 13.2614C78.3903 13.2614 77.5334 12.141 77.5334 10.2177C77.5334 8.33244 78.5585 7.21525 79.9899 7.21525C80.7961 7.21525 81.3007 7.53898 81.7832 7.96745L83.0051 6.48845C82.3418 5.82512 81.3293 5.22526 79.9106 5.22526C77.3239 5.22526 75.153 7.07243 75.153 10.297C75.153 13.5724 77.2731 15.2609 79.9487 15.2609ZM87.4496 9.84001L87.4496 7.24064L88.4906 7.24064C89.5951 7.24064 90.195 7.53898 90.195 8.44987C90.195 9.36076 89.5951 9.84001 88.4906 9.84001L87.4496 9.84001ZM90.3505 15.08L92.9499 15.08L90.7916 11.246C91.7914 10.7763 92.4547 9.86857 92.4547 8.44987C92.4547 6.11076 90.7409 5.39348 88.6715 5.39348L85.1232 5.39348L85.1232 15.08L87.4496 15.08L87.4496 11.6745L88.57 11.6745L90.3505 15.08ZM92.9623 15.08L95.3299 15.08L95.8885 12.8583L98.7482 12.8583L99.3067 15.08L101.751 15.08L98.7482 5.39348L95.9647 5.39348L92.9623 15.08ZM96.3297 11.0619L96.5392 10.2431C96.7836 9.28142 97.0438 8.15153 97.2787 7.13591L97.3295 7.13591C97.5897 8.12614 97.8373 9.28142 98.0975 10.2431L98.307 11.0619L96.3297 11.0619ZM102.764 15.08L104.846 15.08L104.846 11.7665C104.846 10.8017 104.662 9.36076 104.545 8.41179L104.599 8.41179L105.379 10.7255L106.69 14.2612L107.966 14.2612L109.264 10.7255L110.07 8.41179L110.137 8.41179C110.007 9.36076 109.823 10.8017 109.823 11.7665L109.823 15.08L111.943 15.08L111.943 5.39348L109.42 5.39348L107.938 9.57976C107.757 10.1415 107.601 10.7509 107.408 11.3349L107.341 11.3349C107.16 10.7509 107.004 10.1415 106.808 9.57976L105.275 5.39348L102.764 5.39348L102.764 15.08Z" fill="#FFFFFF" clip-path="url(#clip_path_4)" transform="matrix(0.819 -0.574 0.574 0.819 250.803 84.859)" />
    <path d="M2.98975 15.08L5.31616 15.08L5.31616 7.33269L7.94409 7.33269L7.94409 5.39348L0.377686 5.39348L0.377686 7.33269L2.98975 7.33269L2.98975 15.08ZM7.61726 15.08L9.98494 15.08L10.5435 12.8583L13.4032 12.8583L13.9617 15.08L16.4056 15.08L13.4032 5.39348L10.6197 5.39348L7.61726 15.08ZM10.9847 11.0619L11.1942 10.2431C11.4386 9.28142 11.6988 8.15153 11.9337 7.13591L11.9845 7.13591C12.2447 8.12614 12.4923 9.28142 12.7525 10.2431L12.962 11.0619L10.9847 11.0619ZM19.7456 9.84001L19.7456 7.24064L20.7866 7.24064C21.8911 7.24064 22.491 7.53898 22.491 8.44987C22.491 9.36076 21.8911 9.84001 20.7866 9.84001L19.7456 9.84001ZM22.6465 15.08L25.2458 15.08L23.0876 11.246C24.0874 10.7763 24.7507 9.86857 24.7507 8.44987C24.7507 6.11076 23.0369 5.39348 20.9675 5.39348L17.4192 5.39348L17.4192 15.08L19.7456 15.08L19.7456 11.6745L20.866 11.6745L22.6465 15.08ZM25.2583 15.08L27.6259 15.08L28.1845 12.8583L31.0442 12.8583L31.6027 15.08L34.0466 15.08L31.0442 5.39348L28.2607 5.39348L25.2583 15.08ZM28.6257 11.0619L28.8352 10.2431C29.0796 9.28142 29.3398 8.15153 29.5747 7.13591L29.6255 7.13591C29.8857 8.12614 30.1333 9.28142 30.3935 10.2431L30.603 11.0619L28.6257 11.0619ZM35.0602 15.08L37.3866 15.08L37.3866 12.5441L38.4403 11.1159L40.7286 15.08L43.2645 15.08L39.7924 9.28142L42.7186 5.39348L40.1701 5.39348L37.4279 9.23063L37.3866 9.23063L37.3866 5.39348L35.0602 5.39348L35.0602 15.08ZM47.2412 15.08L49.5676 15.08L49.5676 11.8681L50.7007 11.8681C52.7541 11.8681 54.522 10.8556 54.522 8.55461C54.522 6.16154 52.7668 5.39348 50.6467 5.39348L47.2412 5.39348L47.2412 15.08ZM49.5676 10.0368L49.5676 7.24064L50.5166 7.24064C51.6369 7.24064 52.259 7.58024 52.259 8.55461C52.259 9.50358 51.7131 10.0368 50.5832 10.0368L49.5676 10.0368ZM58.4986 9.84001L58.4986 7.24064L59.5396 7.24064C60.6441 7.24064 61.244 7.53898 61.244 8.44987C61.244 9.36076 60.6441 9.84001 59.5396 9.84001L58.4986 9.84001ZM61.3995 15.08L63.9989 15.08L61.8406 11.246C62.8404 10.7763 63.5037 9.86857 63.5037 8.44987C63.5037 6.11076 61.7899 5.39348 59.7205 5.39348L56.1722 5.39348L56.1722 15.08L58.4986 15.08L58.4986 11.6745L59.619 11.6745L61.3995 15.08ZM69.3689 15.2609C72.0063 15.2609 73.7995 13.363 73.7995 10.1923C73.7995 7.03435 72.0063 5.22526 69.3689 5.22526C66.7282 5.22526 64.935 7.01848 64.935 10.1923C64.935 13.363 66.7282 15.2609 69.3689 15.2609ZM69.3689 13.2614C68.093 13.2614 67.3154 12.0649 67.3154 10.1923C67.3154 8.31975 68.093 7.21525 69.3689 7.21525C70.6416 7.21525 71.435 8.31975 71.435 10.1923C71.435 12.0649 70.6416 13.2614 69.3689 13.2614ZM79.9487 15.2609C81.3007 15.2609 82.4973 14.7277 83.1733 14.0802L83.1733 9.55437L79.5742 9.55437L79.5742 11.4523L81.1071 11.4523L81.1071 13.0138C80.8977 13.1694 80.5358 13.2614 80.1962 13.2614C78.3903 13.2614 77.5334 12.141 77.5334 10.2177C77.5334 8.33244 78.5585 7.21525 79.9899 7.21525C80.7961 7.21525 81.3007 7.53898 81.7832 7.96745L83.0051 6.48845C82.3418 5.82512 81.3293 5.22526 79.9106 5.22526C77.3239 5.22526 75.153 7.07243 75.153 10.297C75.153 13.5724 77.2731 15.2609 79.9487 15.2609ZM87.4496 9.84001L87.4496 7.24064L88.4906 7.24064C89.5951 7.24064 90.195 7.53898 90.195 8.44987C90.195 9.36076 89.5951 9.84001 88.4906 9.84001L87.4496 9.84001ZM90.3505 15.08L92.9499 15.08L90.7916 11.246C91.7914 10.7763 92.4547 9.86857 92.4547 8.44987C92.4547 6.11076 90.7409 5.39348 88.6715 5.39348L85.1232 5.39348L85.1232 15.08L87.4496 15.08L87.4496 11.6745L88.57 11.6745L90.3505 15.08ZM92.9623 15.08L95.3299 15.08L95.8885 12.8583L98.7482 12.8583L99.3067 15.08L101.751 15.08L98.7482 5.39348L95.9647 5.39348L92.9623 15.08ZM96.3297 11.0619L96.5392 10.2431C96.7836 9.28142 97.0438 8.15153 97.2787 7.13591L97.3295 7.13591C97.5897 8.12614 97.8373 9.28142 98.0975 10.2431L98.307 11.0619L96.3297 11.0619ZM102.764 15.08L104.846 15.08L104.846 11.7665C104.846 10.8017 104.662 9.36076 104.545 8.41179L104.599 8.41179L105.379 10.7255L106.69 14.2612L107.966 14.2612L109.264 10.7255L110.07 8.41179L110.137 8.41179C110.007 9.36076 109.823 10.8017 109.823 11.7665L109.823 15.08L111.943 15.08L111.943 5.39348L109.42 5.39348L107.938 9.57976C107.757 10.1415 107.601 10.7509 107.408 11.3349L107.341 11.3349C107.16 10.7509 107.004 10.1415 106.808 9.57976L105.275 5.39348L102.764 5.39348L102.764 15.08Z" fill="#FFFFFF" clip-path="url(#clip_path_5)" transform="matrix(0.819 -0.574 0.574 0.819 344.599 86.044)" />
    <path d="M2.98975 15.08L5.31616 15.08L5.31616 7.33269L7.94409 7.33269L7.94409 5.39348L0.377686 5.39348L0.377686 7.33269L2.98975 7.33269L2.98975 15.08ZM7.61726 15.08L9.98494 15.08L10.5435 12.8583L13.4032 12.8583L13.9617 15.08L16.4056 15.08L13.4032 5.39348L10.6197 5.39348L7.61726 15.08ZM10.9847 11.0619L11.1942 10.2431C11.4386 9.28142 11.6988 8.15153 11.9337 7.13591L11.9845 7.13591C12.2447 8.12614 12.4923 9.28142 12.7525 10.2431L12.962 11.0619L10.9847 11.0619ZM19.7456 9.84001L19.7456 7.24064L20.7866 7.24064C21.8911 7.24064 22.491 7.53898 22.491 8.44987C22.491 9.36076 21.8911 9.84001 20.7866 9.84001L19.7456 9.84001ZM22.6465 15.08L25.2458 15.08L23.0876 11.246C24.0874 10.7763 24.7507 9.86857 24.7507 8.44987C24.7507 6.11076 23.0369 5.39348 20.9675 5.39348L17.4192 5.39348L17.4192 15.08L19.7456 15.08L19.7456 11.6745L20.866 11.6745L22.6465 15.08ZM25.2583 15.08L27.6259 15.08L28.1845 12.8583L31.0442 12.8583L31.6027 15.08L34.0466 15.08L31.0442 5.39348L28.2607 5.39348L25.2583 15.08ZM28.6257 11.0619L28.8352 10.2431C29.0796 9.28142 29.3398 8.15153 29.5747 7.13591L29.6255 7.13591C29.8857 8.12614 30.1333 9.28142 30.3935 10.2431L30.603 11.0619L28.6257 11.0619ZM35.0602 15.08L37.3866 15.08L37.3866 12.5441L38.4403 11.1159L40.7286 15.08L43.2645 15.08L39.7924 9.28142L42.7186 5.39348L40.1701 5.39348L37.4279 9.23063L37.3866 9.23063L37.3866 5.39348L35.0602 5.39348L35.0602 15.08ZM47.2412 15.08L49.5676 15.08L49.5676 11.8681L50.7007 11.8681C52.7541 11.8681 54.522 10.8556 54.522 8.55461C54.522 6.16154 52.7668 5.39348 50.6467 5.39348L47.2412 5.39348L47.2412 15.08ZM49.5676 10.0368L49.5676 7.24064L50.5166 7.24064C51.6369 7.24064 52.259 7.58024 52.259 8.55461C52.259 9.50358 51.7131 10.0368 50.5832 10.0368L49.5676 10.0368ZM58.4986 9.84001L58.4986 7.24064L59.5396 7.24064C60.6441 7.24064 61.244 7.53898 61.244 8.44987C61.244 9.36076 60.6441 9.84001 59.5396 9.84001L58.4986 9.84001ZM61.3995 15.08L63.9989 15.08L61.8406 11.246C62.8404 10.7763 63.5037 9.86857 63.5037 8.44987C63.5037 6.11076 61.7899 5.39348 59.7205 5.39348L56.1722 5.39348L56.1722 15.08L58.4986 15.08L58.4986 11.6745L59.619 11.6745L61.3995 15.08ZM69.3689 15.2609C72.0063 15.2609 73.7995 13.363 73.7995 10.1923C73.7995 7.03435 72.0063 5.22526 69.3689 5.22526C66.7282 5.22526 64.935 7.01848 64.935 10.1923C64.935 13.363 66.7282 15.2609 69.3689 15.2609ZM69.3689 13.2614C68.093 13.2614 67.3154 12.0649 67.3154 10.1923C67.3154 8.31975 68.093 7.21525 69.3689 7.21525C70.6416 7.21525 71.435 8.31975 71.435 10.1923C71.435 12.0649 70.6416 13.2614 69.3689 13.2614ZM79.9487 15.2609C81.3007 15.2609 82.4973 14.7277 83.1733 14.0802L83.1733 9.55437L79.5742 9.55437L79.5742 11.4523L81.1071 11.4523L81.1071 13.0138C80.8977 13.1694 80.5358 13.2614 80.1962 13.2614C78.3903 13.2614 77.5334 12.141 77.5334 10.2177C77.5334 8.33244 78.5585 7.21525 79.9899 7.21525C80.7961 7.21525 81.3007 7.53898 81.7832 7.96745L83.0051 6.48845C82.3418 5.82512 81.3293 5.22526 79.9106 5.22526C77.3239 5.22526 75.153 7.07243 75.153 10.297C75.153 13.5724 77.2731 15.2609 79.9487 15.2609ZM87.4496 9.84001L87.4496 7.24064L88.4906 7.24064C89.5951 7.24064 90.195 7.53898 90.195 8.44987C90.195 9.36076 89.5951 9.84001 88.4906 9.84001L87.4496 9.84001ZM90.3505 15.08L92.9499 15.08L90.7916 11.246C91.7914 10.7763 92.4547 9.86857 92.4547 8.44987C92.4547 6.11076 90.7409 5.39348 88.6715 5.39348L85.1232 5.39348L85.1232 15.08L87.4496 15.08L87.4496 11.6745L88.57 11.6745L90.3505 15.08ZM92.9623 15.08L95.3299 15.08L95.8885 12.8583L98.7482 12.8583L99.3067 15.08L101.751 15.08L98.7482 5.39348L95.9647 5.39348L92.9623 15.08ZM96.3297 11.0619L96.5392 10.2431C96.7836 9.28142 97.0438 8.15153 97.2787 7.13591L97.3295 7.13591C97.5897 8.12614 97.8373 9.28142 98.0975 10.2431L98.307 11.0619L96.3297 11.0619ZM102.764 15.08L104.846 15.08L104.846 11.7665C104.846 10.8017 104.662 9.36076 104.545 8.41179L104.599 8.41179L105.379 10.7255L106.69 14.2612L107.966 14.2612L109.264 10.7255L110.07 8.41179L110.137 8.41179C110.007 9.36076 109.823 10.8017 109.823 11.7665L109.823 15.08L111.943 15.08L111.943 5.39348L109.42 5.39348L107.938 9.57976C107.757 10.1415 107.601 10.7509 107.408 11.3349L107.341 11.3349C107.16 10.7509 107.004 10.1415 106.808 9.57976L105.275 5.39348L102.764 5.39348L102.764 15.08Z" fill="#FFFFFF" clip-path="url(#clip_path_6)" transform="matrix(0.819 -0.574 0.574 0.819 427.206 96.497)" />
    <path d="M2.98975 15.08L5.31616 15.08L5.31616 7.33269L7.94409 7.33269L7.94409 5.39348L0.377686 5.39348L0.377686 7.33269L2.98975 7.33269L2.98975 15.08ZM7.61726 15.08L9.98494 15.08L10.5435 12.8583L13.4032 12.8583L13.9617 15.08L16.4056 15.08L13.4032 5.39348L10.6197 5.39348L7.61726 15.08ZM10.9847 11.0619L11.1942 10.2431C11.4386 9.28142 11.6988 8.15153 11.9337 7.13591L11.9845 7.13591C12.2447 8.12614 12.4923 9.28142 12.7525 10.2431L12.962 11.0619L10.9847 11.0619ZM19.7456 9.84001L19.7456 7.24064L20.7866 7.24064C21.8911 7.24064 22.491 7.53898 22.491 8.44987C22.491 9.36076 21.8911 9.84001 20.7866 9.84001L19.7456 9.84001ZM22.6465 15.08L25.2458 15.08L23.0876 11.246C24.0874 10.7763 24.7507 9.86857 24.7507 8.44987C24.7507 6.11076 23.0369 5.39348 20.9675 5.39348L17.4192 5.39348L17.4192 15.08L19.7456 15.08L19.7456 11.6745L20.866 11.6745L22.6465 15.08ZM25.2583 15.08L27.6259 15.08L28.1845 12.8583L31.0442 12.8583L31.6027 15.08L34.0466 15.08L31.0442 5.39348L28.2607 5.39348L25.2583 15.08ZM28.6257 11.0619L28.8352 10.2431C29.0796 9.28142 29.3398 8.15153 29.5747 7.13591L29.6255 7.13591C29.8857 8.12614 30.1333 9.28142 30.3935 10.2431L30.603 11.0619L28.6257 11.0619ZM35.0602 15.08L37.3866 15.08L37.3866 12.5441L38.4403 11.1159L40.7286 15.08L43.2645 15.08L39.7924 9.28142L42.7186 5.39348L40.1701 5.39348L37.4279 9.23063L37.3866 9.23063L37.3866 5.39348L35.0602 5.39348L35.0602 15.08ZM47.2412 15.08L49.5676 15.08L49.5676 11.8681L50.7007 11.8681C52.7541 11.8681 54.522 10.8556 54.522 8.55461C54.522 6.16154 52.7668 5.39348 50.6467 5.39348L47.2412 5.39348L47.2412 15.08ZM49.5676 10.0368L49.5676 7.24064L50.5166 7.24064C51.6369 7.24064 52.259 7.58024 52.259 8.55461C52.259 9.50358 51.7131 10.0368 50.5832 10.0368L49.5676 10.0368ZM58.4986 9.84001L58.4986 7.24064L59.5396 7.24064C60.6441 7.24064 61.244 7.53898 61.244 8.44987C61.244 9.36076 60.6441 9.84001 59.5396 9.84001L58.4986 9.84001ZM61.3995 15.08L63.9989 15.08L61.8406 11.246C62.8404 10.7763 63.5037 9.86857 63.5037 8.44987C63.5037 6.11076 61.7899 5.39348 59.7205 5.39348L56.1722 5.39348L56.1722 15.08L58.4986 15.08L58.4986 11.6745L59.619 11.6745L61.3995 15.08ZM69.3689 15.2609C72.0063 15.2609 73.7995 13.363 73.7995 10.1923C73.7995 7.03435 72.0063 5.22526 69.3689 5.22526C66.7282 5.22526 64.935 7.01848 64.935 10.1923C64.935 13.363 66.7282 15.2609 69.3689 15.2609ZM69.3689 13.2614C68.093 13.2614 67.3154 12.0649 67.3154 10.1923C67.3154 8.31975 68.093 7.21525 69.3689 7.21525C70.6416 7.21525 71.435 8.31975 71.435 10.1923C71.435 12.0649 70.6416 13.2614 69.3689 13.2614ZM79.9487 15.2609C81.3007 15.2609 82.4973 14.7277 83.1733 14.0802L83.1733 9.55437L79.5742 9.55437L79.5742 11.4523L81.1071 11.4523L81.1071 13.0138C80.8977 13.1694 80.5358 13.2614 80.1962 13.2614C78.3903 13.2614 77.5334 12.141 77.5334 10.2177C77.5334 8.33244 78.5585 7.21525 79.9899 7.21525C80.7961 7.21525 81.3007 7.53898 81.7832 7.96745L83.0051 6.48845C82.3418 5.82512 81.3293 5.22526 79.9106 5.22526C77.3239 5.22526 75.153 7.07243 75.153 10.297C75.153 13.5724 77.2731 15.2609 79.9487 15.2609ZM87.4496 9.84001L87.4496 7.24064L88.4906 7.24064C89.5951 7.24064 90.195 7.53898 90.195 8.44987C90.195 9.36076 89.5951 9.84001 88.4906 9.84001L87.4496 9.84001ZM90.3505 15.08L92.9499 15.08L90.7916 11.246C91.7914 10.7763 92.4547 9.86857 92.4547 8.44987C92.4547 6.11076 90.7409 5.39348 88.6715 5.39348L85.1232 5.39348L85.1232 15.08L87.4496 15.08L87.4496 11.6745L88.57 11.6745L90.3505 15.08ZM92.9623 15.08L95.3299 15.08L95.8885 12.8583L98.7482 12.8583L99.3067 15.08L101.751 15.08L98.7482 5.39348L95.9647 5.39348L92.9623 15.08ZM96.3297 11.0619L96.5392 10.2431C96.7836 9.28142 97.0438 8.15153 97.2787 7.13591L97.3295 7.13591C97.5897 8.12614 97.8373 9.28142 98.0975 10.2431L98.307 11.0619L96.3297 11.0619ZM102.764 15.08L104.846 15.08L104.846 11.7665C104.846 10.8017 104.662 9.36076 104.545 8.41179L104.599 8.41179L105.379 10.7255L106.69 14.2612L107.966 14.2612L109.264 10.7255L110.07 8.41179L110.137 8.41179C110.007 9.36076 109.823 10.8017 109.823 11.7665L109.823 15.08L111.943 15.08L111.943 5.39348L109.42 5.39348L107.938 9.57976C107.757 10.1415 107.601 10.7509 107.408 11.3349L107.341 11.3349C107.16 10.7509 107.004 10.1415 106.808 9.57976L105.275 5.39348L102.764 5.39348L102.764 15.08Z" fill="#FFFFFF" clip-path="url(#clip_path_7)" transform="matrix(0.819 -0.574 0.574 0.819 0 191.599)" />
    <path d="M2.98975 15.08L5.31616 15.08L5.31616 7.33269L7.94409 7.33269L7.94409 5.39348L0.377686 5.39348L0.377686 7.33269L2.98975 7.33269L2.98975 15.08ZM7.61726 15.08L9.98494 15.08L10.5435 12.8583L13.4032 12.8583L13.9617 15.08L16.4056 15.08L13.4032 5.39348L10.6197 5.39348L7.61726 15.08ZM10.9847 11.0619L11.1942 10.2431C11.4386 9.28142 11.6988 8.15153 11.9337 7.13591L11.9845 7.13591C12.2447 8.12614 12.4923 9.28142 12.7525 10.2431L12.962 11.0619L10.9847 11.0619ZM19.7456 9.84001L19.7456 7.24064L20.7866 7.24064C21.8911 7.24064 22.491 7.53898 22.491 8.44987C22.491 9.36076 21.8911 9.84001 20.7866 9.84001L19.7456 9.84001ZM22.6465 15.08L25.2458 15.08L23.0876 11.246C24.0874 10.7763 24.7507 9.86857 24.7507 8.44987C24.7507 6.11076 23.0369 5.39348 20.9675 5.39348L17.4192 5.39348L17.4192 15.08L19.7456 15.08L19.7456 11.6745L20.866 11.6745L22.6465 15.08ZM25.2583 15.08L27.6259 15.08L28.1845 12.8583L31.0442 12.8583L31.6027 15.08L34.0466 15.08L31.0442 5.39348L28.2607 5.39348L25.2583 15.08ZM28.6257 11.0619L28.8352 10.2431C29.0796 9.28142 29.3398 8.15153 29.5747 7.13591L29.6255 7.13591C29.8857 8.12614 30.1333 9.28142 30.3935 10.2431L30.603 11.0619L28.6257 11.0619ZM35.0602 15.08L37.3866 15.08L37.3866 12.5441L38.4403 11.1159L40.7286 15.08L43.2645 15.08L39.7924 9.28142L42.7186 5.39348L40.1701 5.39348L37.4279 9.23063L37.3866 9.23063L37.3866 5.39348L35.0602 5.39348L35.0602 15.08ZM47.2412 15.08L49.5676 15.08L49.5676 11.8681L50.7007 11.8681C52.7541 11.8681 54.522 10.8556 54.522 8.55461C54.522 6.16154 52.7668 5.39348 50.6467 5.39348L47.2412 5.39348L47.2412 15.08ZM49.5676 10.0368L49.5676 7.24064L50.5166 7.24064C51.6369 7.24064 52.259 7.58024 52.259 8.55461C52.259 9.50358 51.7131 10.0368 50.5832 10.0368L49.5676 10.0368ZM58.4986 9.84001L58.4986 7.24064L59.5396 7.24064C60.6441 7.24064 61.244 7.53898 61.244 8.44987C61.244 9.36076 60.6441 9.84001 59.5396 9.84001L58.4986 9.84001ZM61.3995 15.08L63.9989 15.08L61.8406 11.246C62.8404 10.7763 63.5037 9.86857 63.5037 8.44987C63.5037 6.11076 61.7899 5.39348 59.7205 5.39348L56.1722 5.39348L56.1722 15.08L58.4986 15.08L58.4986 11.6745L59.619 11.6745L61.3995 15.08ZM69.3689 15.2609C72.0063 15.2609 73.7995 13.363 73.7995 10.1923C73.7995 7.03435 72.0063 5.22526 69.3689 5.22526C66.7282 5.22526 64.935 7.01848 64.935 10.1923C64.935 13.363 66.7282 15.2609 69.3689 15.2609ZM69.3689 13.2614C68.093 13.2614 67.3154 12.0649 67.3154 10.1923C67.3154 8.31975 68.093 7.21525 69.3689 7.21525C70.6416 7.21525 71.435 8.31975 71.435 10.1923C71.435 12.0649 70.6416 13.2614 69.3689 13.2614ZM79.9487 15.2609C81.3007 15.2609 82.4973 14.7277 83.1733 14.0802L83.1733 9.55437L79.5742 9.55437L79.5742 11.4523L81.1071 11.4523L81.1071 13.0138C80.8977 13.1694 80.5358 13.2614 80.1962 13.2614C78.3903 13.2614 77.5334 12.141 77.5334 10.2177C77.5334 8.33244 78.5585 7.21525 79.9899 7.21525C80.7961 7.21525 81.3007 7.53898 81.7832 7.96745L83.0051 6.48845C82.3418 5.82512 81.3293 5.22526 79.9106 5.22526C77.3239 5.22526 75.153 7.07243 75.153 10.297C75.153 13.5724 77.2731 15.2609 79.9487 15.2609ZM87.4496 9.84001L87.4496 7.24064L88.4906 7.24064C89.5951 7.24064 90.195 7.53898 90.195 8.44987C90.195 9.36076 89.5951 9.84001 88.4906 9.84001L87.4496 9.84001ZM90.3505 15.08L92.9499 15.08L90.7916 11.246C91.7914 10.7763 92.4547 9.86857 92.4547 8.44987C92.4547 6.11076 90.7409 5.39348 88.6715 5.39348L85.1232 5.39348L85.1232 15.08L87.4496 15.08L87.4496 11.6745L88.57 11.6745L90.3505 15.08ZM92.9623 15.08L95.3299 15.08L95.8885 12.8583L98.7482 12.8583L99.3067 15.08L101.751 15.08L98.7482 5.39348L95.9647 5.39348L92.9623 15.08ZM96.3297 11.0619L96.5392 10.2431C96.7836 9.28142 97.0438 8.15153 97.2787 7.13591L97.3295 7.13591C97.5897 8.12614 97.8373 9.28142 98.0975 10.2431L98.307 11.0619L96.3297 11.0619ZM102.764 15.08L104.846 15.08L104.846 11.7665C104.846 10.8017 104.662 9.36076 104.545 8.41179L104.599 8.41179L105.379 10.7255L106.69 14.2612L107.966 14.2612L109.264 10.7255L110.07 8.41179L110.137 8.41179C110.007 9.36076 109.823 10.8017 109.823 11.7665L109.823 15.08L111.943 15.08L111.943 5.39348L109.42 5.39348L107.938 9.57976C107.757 10.1415 107.601 10.7509 107.408 11.3349L107.341 11.3349C107.16 10.7509 107.004 10.1415 106.808 9.57976L105.275 5.39348L102.764 5.39348L102.764 15.08Z" fill="#FFFFFF" clip-path="url(#clip_path_8)" transform="matrix(0.819 -0.574 0.574 0.819 69.28 201.192)" />
    <path d="M2.98975 15.08L5.31616 15.08L5.31616 7.33269L7.94409 7.33269L7.94409 5.39348L0.377686 5.39348L0.377686 7.33269L2.98975 7.33269L2.98975 15.08ZM7.61726 15.08L9.98494 15.08L10.5435 12.8583L13.4032 12.8583L13.9617 15.08L16.4056 15.08L13.4032 5.39348L10.6197 5.39348L7.61726 15.08ZM10.9847 11.0619L11.1942 10.2431C11.4386 9.28142 11.6988 8.15153 11.9337 7.13591L11.9845 7.13591C12.2447 8.12614 12.4923 9.28142 12.7525 10.2431L12.962 11.0619L10.9847 11.0619ZM19.7456 9.84001L19.7456 7.24064L20.7866 7.24064C21.8911 7.24064 22.491 7.53898 22.491 8.44987C22.491 9.36076 21.8911 9.84001 20.7866 9.84001L19.7456 9.84001ZM22.6465 15.08L25.2458 15.08L23.0876 11.246C24.0874 10.7763 24.7507 9.86857 24.7507 8.44987C24.7507 6.11076 23.0369 5.39348 20.9675 5.39348L17.4192 5.39348L17.4192 15.08L19.7456 15.08L19.7456 11.6745L20.866 11.6745L22.6465 15.08ZM25.2583 15.08L27.6259 15.08L28.1845 12.8583L31.0442 12.8583L31.6027 15.08L34.0466 15.08L31.0442 5.39348L28.2607 5.39348L25.2583 15.08ZM28.6257 11.0619L28.8352 10.2431C29.0796 9.28142 29.3398 8.15153 29.5747 7.13591L29.6255 7.13591C29.8857 8.12614 30.1333 9.28142 30.3935 10.2431L30.603 11.0619L28.6257 11.0619ZM35.0602 15.08L37.3866 15.08L37.3866 12.5441L38.4403 11.1159L40.7286 15.08L43.2645 15.08L39.7924 9.28142L42.7186 5.39348L40.1701 5.39348L37.4279 9.23063L37.3866 9.23063L37.3866 5.39348L35.0602 5.39348L35.0602 15.08ZM47.2412 15.08L49.5676 15.08L49.5676 11.8681L50.7007 11.8681C52.7541 11.8681 54.522 10.8556 54.522 8.55461C54.522 6.16154 52.7668 5.39348 50.6467 5.39348L47.2412 5.39348L47.2412 15.08ZM49.5676 10.0368L49.5676 7.24064L50.5166 7.24064C51.6369 7.24064 52.259 7.58024 52.259 8.55461C52.259 9.50358 51.7131 10.0368 50.5832 10.0368L49.5676 10.0368ZM58.4986 9.84001L58.4986 7.24064L59.5396 7.24064C60.6441 7.24064 61.244 7.53898 61.244 8.44987C61.244 9.36076 60.6441 9.84001 59.5396 9.84001L58.4986 9.84001ZM61.3995 15.08L63.9989 15.08L61.8406 11.246C62.8404 10.7763 63.5037 9.86857 63.5037 8.44987C63.5037 6.11076 61.7899 5.39348 59.7205 5.39348L56.1722 5.39348L56.1722 15.08L58.4986 15.08L58.4986 11.6745L59.619 11.6745L61.3995 15.08ZM69.3689 15.2609C72.0063 15.2609 73.7995 13.363 73.7995 10.1923C73.7995 7.03435 72.0063 5.22526 69.3689 5.22526C66.7282 5.22526 64.935 7.01848 64.935 10.1923C64.935 13.363 66.7282 15.2609 69.3689 15.2609ZM69.3689 13.2614C68.093 13.2614 67.3154 12.0649 67.3154 10.1923C67.3154 8.31975 68.093 7.21525 69.3689 7.21525C70.6416 7.21525 71.435 8.31975 71.435 10.1923C71.435 12.0649 70.6416 13.2614 69.3689 13.2614ZM79.9487 15.2609C81.3007 15.2609 82.4973 14.7277 83.1733 14.0802L83.1733 9.55437L79.5742 9.55437L79.5742 11.4523L81.1071 11.4523L81.1071 13.0138C80.8977 13.1694 80.5358 13.2614 80.1962 13.2614C78.3903 13.2614 77.5334 12.141 77.5334 10.2177C77.5334 8.33244 78.5585 7.21525 79.9899 7.21525C80.7961 7.21525 81.3007 7.53898 81.7832 7.96745L83.0051 6.48845C82.3418 5.82512 81.3293 5.22526 79.9106 5.22526C77.3239 5.22526 75.153 7.07243 75.153 10.297C75.153 13.5724 77.2731 15.2609 79.9487 15.2609ZM87.4496 9.84001L87.4496 7.24064L88.4906 7.24064C89.5951 7.24064 90.195 7.53898 90.195 8.44987C90.195 9.36076 89.5951 9.84001 88.4906 9.84001L87.4496 9.84001ZM90.3505 15.08L92.9499 15.08L90.7916 11.246C91.7914 10.7763 92.4547 9.86857 92.4547 8.44987C92.4547 6.11076 90.7409 5.39348 88.6715 5.39348L85.1232 5.39348L85.1232 15.08L87.4496 15.08L87.4496 11.6745L88.57 11.6745L90.3505 15.08ZM92.9623 15.08L95.3299 15.08L95.8885 12.8583L98.7482 12.8583L99.3067 15.08L101.751 15.08L98.7482 5.39348L95.9647 5.39348L92.9623 15.08ZM96.3297 11.0619L96.5392 10.2431C96.7836 9.28142 97.0438 8.15153 97.2787 7.13591L97.3295 7.13591C97.5897 8.12614 97.8373 9.28142 98.0975 10.2431L98.307 11.0619L96.3297 11.0619ZM102.764 15.08L104.846 15.08L104.846 11.7665C104.846 10.8017 104.662 9.36076 104.545 8.41179L104.599 8.41179L105.379 10.7255L106.69 14.2612L107.966 14.2612L109.264 10.7255L110.07 8.41179L110.137 8.41179C110.007 9.36076 109.823 10.8017 109.823 11.7665L109.823 15.08L111.943 15.08L111.943 5.39348L109.42 5.39348L107.938 9.57976C107.757 10.1415 107.601 10.7509 107.408 11.3349L107.341 11.3349C107.16 10.7509 107.004 10.1415 106.808 9.57976L105.275 5.39348L102.764 5.39348L102.764 15.08Z" fill="#FFFFFF" clip-path="url(#clip_path_9)" transform="matrix(0.819 -0.574 0.574 0.819 173.733 192.665)" />
    <path d="M2.98975 15.08L5.31616 15.08L5.31616 7.33269L7.94409 7.33269L7.94409 5.39348L0.377686 5.39348L0.377686 7.33269L2.98975 7.33269L2.98975 15.08ZM7.61726 15.08L9.98494 15.08L10.5435 12.8583L13.4032 12.8583L13.9617 15.08L16.4056 15.08L13.4032 5.39348L10.6197 5.39348L7.61726 15.08ZM10.9847 11.0619L11.1942 10.2431C11.4386 9.28142 11.6988 8.15153 11.9337 7.13591L11.9845 7.13591C12.2447 8.12614 12.4923 9.28142 12.7525 10.2431L12.962 11.0619L10.9847 11.0619ZM19.7456 9.84001L19.7456 7.24064L20.7866 7.24064C21.8911 7.24064 22.491 7.53898 22.491 8.44987C22.491 9.36076 21.8911 9.84001 20.7866 9.84001L19.7456 9.84001ZM22.6465 15.08L25.2458 15.08L23.0876 11.246C24.0874 10.7763 24.7507 9.86857 24.7507 8.44987C24.7507 6.11076 23.0369 5.39348 20.9675 5.39348L17.4192 5.39348L17.4192 15.08L19.7456 15.08L19.7456 11.6745L20.866 11.6745L22.6465 15.08ZM25.2583 15.08L27.6259 15.08L28.1845 12.8583L31.0442 12.8583L31.6027 15.08L34.0466 15.08L31.0442 5.39348L28.2607 5.39348L25.2583 15.08ZM28.6257 11.0619L28.8352 10.2431C29.0796 9.28142 29.3398 8.15153 29.5747 7.13591L29.6255 7.13591C29.8857 8.12614 30.1333 9.28142 30.3935 10.2431L30.603 11.0619L28.6257 11.0619ZM35.0602 15.08L37.3866 15.08L37.3866 12.5441L38.4403 11.1159L40.7286 15.08L43.2645 15.08L39.7924 9.28142L42.7186 5.39348L40.1701 5.39348L37.4279 9.23063L37.3866 9.23063L37.3866 5.39348L35.0602 5.39348L35.0602 15.08ZM47.2412 15.08L49.5676 15.08L49.5676 11.8681L50.7007 11.8681C52.7541 11.8681 54.522 10.8556 54.522 8.55461C54.522 6.16154 52.7668 5.39348 50.6467 5.39348L47.2412 5.39348L47.2412 15.08ZM49.5676 10.0368L49.5676 7.24064L50.5166 7.24064C51.6369 7.24064 52.259 7.58024 52.259 8.55461C52.259 9.50358 51.7131 10.0368 50.5832 10.0368L49.5676 10.0368ZM58.4986 9.84001L58.4986 7.24064L59.5396 7.24064C60.6441 7.24064 61.244 7.53898 61.244 8.44987C61.244 9.36076 60.6441 9.84001 59.5396 9.84001L58.4986 9.84001ZM61.3995 15.08L63.9989 15.08L61.8406 11.246C62.8404 10.7763 63.5037 9.86857 63.5037 8.44987C63.5037 6.11076 61.7899 5.39348 59.7205 5.39348L56.1722 5.39348L56.1722 15.08L58.4986 15.08L58.4986 11.6745L59.619 11.6745L61.3995 15.08ZM69.3689 15.2609C72.0063 15.2609 73.7995 13.363 73.7995 10.1923C73.7995 7.03435 72.0063 5.22526 69.3689 5.22526C66.7282 5.22526 64.935 7.01848 64.935 10.1923C64.935 13.363 66.7282 15.2609 69.3689 15.2609ZM69.3689 13.2614C68.093 13.2614 67.3154 12.0649 67.3154 10.1923C67.3154 8.31975 68.093 7.21525 69.3689 7.21525C70.6416 7.21525 71.435 8.31975 71.435 10.1923C71.435 12.0649 70.6416 13.2614 69.3689 13.2614ZM79.9487 15.2609C81.3007 15.2609 82.4973 14.7277 83.1733 14.0802L83.1733 9.55437L79.5742 9.55437L79.5742 11.4523L81.1071 11.4523L81.1071 13.0138C80.8977 13.1694 80.5358 13.2614 80.1962 13.2614C78.3903 13.2614 77.5334 12.141 77.5334 10.2177C77.5334 8.33244 78.5585 7.21525 79.9899 7.21525C80.7961 7.21525 81.3007 7.53898 81.7832 7.96745L83.0051 6.48845C82.3418 5.82512 81.3293 5.22526 79.9106 5.22526C77.3239 5.22526 75.153 7.07243 75.153 10.297C75.153 13.5724 77.2731 15.2609 79.9487 15.2609ZM87.4496 9.84001L87.4496 7.24064L88.4906 7.24064C89.5951 7.24064 90.195 7.53898 90.195 8.44987C90.195 9.36076 89.5951 9.84001 88.4906 9.84001L87.4496 9.84001ZM90.3505 15.08L92.9499 15.08L90.7916 11.246C91.7914 10.7763 92.4547 9.86857 92.4547 8.44987C92.4547 6.11076 90.7409 5.39348 88.6715 5.39348L85.1232 5.39348L85.1232 15.08L87.4496 15.08L87.4496 11.6745L88.57 11.6745L90.3505 15.08ZM92.9623 15.08L95.3299 15.08L95.8885 12.8583L98.7482 12.8583L99.3067 15.08L101.751 15.08L98.7482 5.39348L95.9647 5.39348L92.9623 15.08ZM96.3297 11.0619L96.5392 10.2431C96.7836 9.28142 97.0438 8.15153 97.2787 7.13591L97.3295 7.13591C97.5897 8.12614 97.8373 9.28142 98.0975 10.2431L98.307 11.0619L96.3297 11.0619ZM102.764 15.08L104.846 15.08L104.846 11.7665C104.846 10.8017 104.662 9.36076 104.545 8.41179L104.599 8.41179L105.379 10.7255L106.69 14.2612L107.966 14.2612L109.264 10.7255L110.07 8.41179L110.137 8.41179C110.007 9.36076 109.823 10.8017 109.823 11.7665L109.823 15.08L111.943 15.08L111.943 5.39348L109.42 5.39348L107.938 9.57976C107.757 10.1415 107.601 10.7509 107.408 11.3349L107.341 11.3349C107.16 10.7509 107.004 10.1415 106.808 9.57976L105.275 5.39348L102.764 5.39348L102.764 15.08Z" fill="#FFFFFF" clip-path="url(#clip_path_10)" transform="matrix(0.819 -0.574 0.574 0.819 264.433 190.746)" />
    <path d="M2.98975 15.08L5.31616 15.08L5.31616 7.33269L7.94409 7.33269L7.94409 5.39348L0.377686 5.39348L0.377686 7.33269L2.98975 7.33269L2.98975 15.08ZM7.61726 15.08L9.98494 15.08L10.5435 12.8583L13.4032 12.8583L13.9617 15.08L16.4056 15.08L13.4032 5.39348L10.6197 5.39348L7.61726 15.08ZM10.9847 11.0619L11.1942 10.2431C11.4386 9.28142 11.6988 8.15153 11.9337 7.13591L11.9845 7.13591C12.2447 8.12614 12.4923 9.28142 12.7525 10.2431L12.962 11.0619L10.9847 11.0619ZM19.7456 9.84001L19.7456 7.24064L20.7866 7.24064C21.8911 7.24064 22.491 7.53898 22.491 8.44987C22.491 9.36076 21.8911 9.84001 20.7866 9.84001L19.7456 9.84001ZM22.6465 15.08L25.2458 15.08L23.0876 11.246C24.0874 10.7763 24.7507 9.86857 24.7507 8.44987C24.7507 6.11076 23.0369 5.39348 20.9675 5.39348L17.4192 5.39348L17.4192 15.08L19.7456 15.08L19.7456 11.6745L20.866 11.6745L22.6465 15.08ZM25.2583 15.08L27.6259 15.08L28.1845 12.8583L31.0442 12.8583L31.6027 15.08L34.0466 15.08L31.0442 5.39348L28.2607 5.39348L25.2583 15.08ZM28.6257 11.0619L28.8352 10.2431C29.0796 9.28142 29.3398 8.15153 29.5747 7.13591L29.6255 7.13591C29.8857 8.12614 30.1333 9.28142 30.3935 10.2431L30.603 11.0619L28.6257 11.0619ZM35.0602 15.08L37.3866 15.08L37.3866 12.5441L38.4403 11.1159L40.7286 15.08L43.2645 15.08L39.7924 9.28142L42.7186 5.39348L40.1701 5.39348L37.4279 9.23063L37.3866 9.23063L37.3866 5.39348L35.0602 5.39348L35.0602 15.08ZM47.2412 15.08L49.5676 15.08L49.5676 11.8681L50.7007 11.8681C52.7541 11.8681 54.522 10.8556 54.522 8.55461C54.522 6.16154 52.7668 5.39348 50.6467 5.39348L47.2412 5.39348L47.2412 15.08ZM49.5676 10.0368L49.5676 7.24064L50.5166 7.24064C51.6369 7.24064 52.259 7.58024 52.259 8.55461C52.259 9.50358 51.7131 10.0368 50.5832 10.0368L49.5676 10.0368ZM58.4986 9.84001L58.4986 7.24064L59.5396 7.24064C60.6441 7.24064 61.244 7.53898 61.244 8.44987C61.244 9.36076 60.6441 9.84001 59.5396 9.84001L58.4986 9.84001ZM61.3995 15.08L63.9989 15.08L61.8406 11.246C62.8404 10.7763 63.5037 9.86857 63.5037 8.44987C63.5037 6.11076 61.7899 5.39348 59.7205 5.39348L56.1722 5.39348L56.1722 15.08L58.4986 15.08L58.4986 11.6745L59.619 11.6745L61.3995 15.08ZM69.3689 15.2609C72.0063 15.2609 73.7995 13.363 73.7995 10.1923C73.7995 7.03435 72.0063 5.22526 69.3689 5.22526C66.7282 5.22526 64.935 7.01848 64.935 10.1923C64.935 13.363 66.7282 15.2609 69.3689 15.2609ZM69.3689 13.2614C68.093 13.2614 67.3154 12.0649 67.3154 10.1923C67.3154 8.31975 68.093 7.21525 69.3689 7.21525C70.6416 7.21525 71.435 8.31975 71.435 10.1923C71.435 12.0649 70.6416 13.2614 69.3689 13.2614ZM79.9487 15.2609C81.3007 15.2609 82.4973 14.7277 83.1733 14.0802L83.1733 9.55437L79.5742 9.55437L79.5742 11.4523L81.1071 11.4523L81.1071 13.0138C80.8977 13.1694 80.5358 13.2614 80.1962 13.2614C78.3903 13.2614 77.5334 12.141 77.5334 10.2177C77.5334 8.33244 78.5585 7.21525 79.9899 7.21525C80.7961 7.21525 81.3007 7.53898 81.7832 7.96745L83.0051 6.48845C82.3418 5.82512 81.3293 5.22526 79.9106 5.22526C77.3239 5.22526 75.153 7.07243 75.153 10.297C75.153 13.5724 77.2731 15.2609 79.9487 15.2609ZM87.4496 9.84001L87.4496 7.24064L88.4906 7.24064C89.5951 7.24064 90.195 7.53898 90.195 8.44987C90.195 9.36076 89.5951 9.84001 88.4906 9.84001L87.4496 9.84001ZM90.3505 15.08L92.9499 15.08L90.7916 11.246C91.7914 10.7763 92.4547 9.86857 92.4547 8.44987C92.4547 6.11076 90.7409 5.39348 88.6715 5.39348L85.1232 5.39348L85.1232 15.08L87.4496 15.08L87.4496 11.6745L88.57 11.6745L90.3505 15.08ZM92.9623 15.08L95.3299 15.08L95.8885 12.8583L98.7482 12.8583L99.3067 15.08L101.751 15.08L98.7482 5.39348L95.9647 5.39348L92.9623 15.08ZM96.3297 11.0619L96.5392 10.2431C96.7836 9.28142 97.0438 8.15153 97.2787 7.13591L97.3295 7.13591C97.5897 8.12614 97.8373 9.28142 98.0975 10.2431L98.307 11.0619L96.3297 11.0619ZM102.764 15.08L104.846 15.08L104.846 11.7665C104.846 10.8017 104.662 9.36076 104.545 8.41179L104.599 8.41179L105.379 10.7255L106.69 14.2612L107.966 14.2612L109.264 10.7255L110.07 8.41179L110.137 8.41179C110.007 9.36076 109.823 10.8017 109.823 11.7665L109.823 15.08L111.943 15.08L111.943 5.39348L109.42 5.39348L107.938 9.57976C107.757 10.1415 107.601 10.7509 107.408 11.3349L107.341 11.3349C107.16 10.7509 107.004 10.1415 106.808 9.57976L105.275 5.39348L102.764 5.39348L102.764 15.08Z" fill="#FFFFFF" clip-path="url(#clip_path_11)" transform="matrix(0.819 -0.574 0.574 0.819 348.531 204.389)" />
    <path d="M2.98975 15.08L5.31616 15.08L5.31616 7.33269L7.94409 7.33269L7.94409 5.39348L0.377686 5.39348L0.377686 7.33269L2.98975 7.33269L2.98975 15.08ZM7.61726 15.08L9.98494 15.08L10.5435 12.8583L13.4032 12.8583L13.9617 15.08L16.4056 15.08L13.4032 5.39348L10.6197 5.39348L7.61726 15.08ZM10.9847 11.0619L11.1942 10.2431C11.4386 9.28142 11.6988 8.15153 11.9337 7.13591L11.9845 7.13591C12.2447 8.12614 12.4923 9.28142 12.7525 10.2431L12.962 11.0619L10.9847 11.0619ZM19.7456 9.84001L19.7456 7.24064L20.7866 7.24064C21.8911 7.24064 22.491 7.53898 22.491 8.44987C22.491 9.36076 21.8911 9.84001 20.7866 9.84001L19.7456 9.84001ZM22.6465 15.08L25.2458 15.08L23.0876 11.246C24.0874 10.7763 24.7507 9.86857 24.7507 8.44987C24.7507 6.11076 23.0369 5.39348 20.9675 5.39348L17.4192 5.39348L17.4192 15.08L19.7456 15.08L19.7456 11.6745L20.866 11.6745L22.6465 15.08ZM25.2583 15.08L27.6259 15.08L28.1845 12.8583L31.0442 12.8583L31.6027 15.08L34.0466 15.08L31.0442 5.39348L28.2607 5.39348L25.2583 15.08ZM28.6257 11.0619L28.8352 10.2431C29.0796 9.28142 29.3398 8.15153 29.5747 7.13591L29.6255 7.13591C29.8857 8.12614 30.1333 9.28142 30.3935 10.2431L30.603 11.0619L28.6257 11.0619ZM35.0602 15.08L37.3866 15.08L37.3866 12.5441L38.4403 11.1159L40.7286 15.08L43.2645 15.08L39.7924 9.28142L42.7186 5.39348L40.1701 5.39348L37.4279 9.23063L37.3866 9.23063L37.3866 5.39348L35.0602 5.39348L35.0602 15.08ZM47.2412 15.08L49.5676 15.08L49.5676 11.8681L50.7007 11.8681C52.7541 11.8681 54.522 10.8556 54.522 8.55461C54.522 6.16154 52.7668 5.39348 50.6467 5.39348L47.2412 5.39348L47.2412 15.08ZM49.5676 10.0368L49.5676 7.24064L50.5166 7.24064C51.6369 7.24064 52.259 7.58024 52.259 8.55461C52.259 9.50358 51.7131 10.0368 50.5832 10.0368L49.5676 10.0368ZM58.4986 9.84001L58.4986 7.24064L59.5396 7.24064C60.6441 7.24064 61.244 7.53898 61.244 8.44987C61.244 9.36076 60.6441 9.84001 59.5396 9.84001L58.4986 9.84001ZM61.3995 15.08L63.9989 15.08L61.8406 11.246C62.8404 10.7763 63.5037 9.86857 63.5037 8.44987C63.5037 6.11076 61.7899 5.39348 59.7205 5.39348L56.1722 5.39348L56.1722 15.08L58.4986 15.08L58.4986 11.6745L59.619 11.6745L61.3995 15.08ZM69.3689 15.2609C72.0063 15.2609 73.7995 13.363 73.7995 10.1923C73.7995 7.03435 72.0063 5.22526 69.3689 5.22526C66.7282 5.22526 64.935 7.01848 64.935 10.1923C64.935 13.363 66.7282 15.2609 69.3689 15.2609ZM69.3689 13.2614C68.093 13.2614 67.3154 12.0649 67.3154 10.1923C67.3154 8.31975 68.093 7.21525 69.3689 7.21525C70.6416 7.21525 71.435 8.31975 71.435 10.1923C71.435 12.0649 70.6416 13.2614 69.3689 13.2614ZM79.9487 15.2609C81.3007 15.2609 82.4973 14.7277 83.1733 14.0802L83.1733 9.55437L79.5742 9.55437L79.5742 11.4523L81.1071 11.4523L81.1071 13.0138C80.8977 13.1694 80.5358 13.2614 80.1962 13.2614C78.3903 13.2614 77.5334 12.141 77.5334 10.2177C77.5334 8.33244 78.5585 7.21525 79.9899 7.21525C80.7961 7.21525 81.3007 7.53898 81.7832 7.96745L83.0051 6.48845C82.3418 5.82512 81.3293 5.22526 79.9106 5.22526C77.3239 5.22526 75.153 7.07243 75.153 10.297C75.153 13.5724 77.2731 15.2609 79.9487 15.2609ZM87.4496 9.84001L87.4496 7.24064L88.4906 7.24064C89.5951 7.24064 90.195 7.53898 90.195 8.44987C90.195 9.36076 89.5951 9.84001 88.4906 9.84001L87.4496 9.84001ZM90.3505 15.08L92.9499 15.08L90.7916 11.246C91.7914 10.7763 92.4547 9.86857 92.4547 8.44987C92.4547 6.11076 90.7409 5.39348 88.6715 5.39348L85.1232 5.39348L85.1232 15.08L87.4496 15.08L87.4496 11.6745L88.57 11.6745L90.3505 15.08ZM92.9623 15.08L95.3299 15.08L95.8885 12.8583L98.7482 12.8583L99.3067 15.08L101.751 15.08L98.7482 5.39348L95.9647 5.39348L92.9623 15.08ZM96.3297 11.0619L96.5392 10.2431C96.7836 9.28142 97.0438 8.15153 97.2787 7.13591L97.3295 7.13591C97.5897 8.12614 97.8373 9.28142 98.0975 10.2431L98.307 11.0619L96.3297 11.0619ZM102.764 15.08L104.846 15.08L104.846 11.7665C104.846 10.8017 104.662 9.36076 104.545 8.41179L104.599 8.41179L105.379 10.7255L106.69 14.2612L107.966 14.2612L109.264 10.7255L110.07 8.41179L110.137 8.41179C110.007 9.36076 109.823 10.8017 109.823 11.7665L109.823 15.08L111.943 15.08L111.943 5.39348L109.42 5.39348L107.938 9.57976C107.757 10.1415 107.601 10.7509 107.408 11.3349L107.341 11.3349C107.16 10.7509 107.004 10.1415 106.808 9.57976L105.275 5.39348L102.764 5.39348L102.764 15.08Z" fill="#FFFFFF" clip-path="url(#clip_path_12)" transform="matrix(0.819 -0.574 0.574 0.819 436.996 216.113)" />
  </g>
</svg>